<?xml version="1.0" encoding="utf-8"?>
<!-- Generator: Adobe Illustrator 25.4.1, SVG Export Plug-In . SVG Version: 6.00 Build 0)  -->
<svg version="1.1" id="Layer_1" xmlns="http://www.w3.org/2000/svg" xmlns:xlink="http://www.w3.org/1999/xlink" x="0px" y="0px"
	 viewBox="0 0 1440 1080" style="enable-background:new 0 0 1440 1080;" xml:space="preserve">
<style type="text/css">
	.st0{fill:#31385B;}
	.st1{opacity:0.75;}
	.st2{fill:#23293F;}
	.st3{fill:#C1C1C1;}
	.st4{opacity:0.6;fill:#666666;stroke:#666666;stroke-width:0.5;stroke-miterlimit:10;enable-background:new    ;}
	.st5{fill:#666666;}
	.st6{opacity:0.9;fill:#23293F;enable-background:new    ;}
	.st7{fill:#545F87;}
	.st8{fill:#5C6889;}
	.st9{fill:#604023;}
	.st10{fill:#715030;}
	.st11{fill:#D1D1D1;}
	.st12{fill:#525252;}
	.st13{opacity:0.2;fill:#FFFFFF;stroke:#000000;stroke-miterlimit:10;enable-background:new    ;}
	.st14{fill:#CCCCCC;}
	.st15{opacity:0.3;fill:#B2B2B2;enable-background:new    ;}
	.st16{opacity:0.5;fill:#C1C1C1;enable-background:new    ;}
	.st17{fill:#B2B2B2;}
	.st18{fill:#B6B6B6;}
	.st19{fill:#3E478B;}
	.st20{fill:#5E5E5E;}
	.st21{fill:#323C7C;}
	.st22{fill:#883A42;}
	.st23{fill:#752732;}
	.st24{fill:#4A3277;}
	.st25{fill:#382666;}
	.st26{fill:#3F6A89;}
	.st27{fill:#2C5E66;}
	.st28{fill:#BC8808;}
	.st29{fill:#A37607;}
</style>
<g>
	<g id="Layer_1_00000003785636667606772260000008792419987821615751_">
		<rect x="-25" y="-22.1" class="st0" width="1489.9" height="1124.2"/>
		<g id="paper">
			<g class="st1">
				<rect x="1060.6" y="384.3" class="st2" width="261" height="335"/>
			</g>
			<rect x="1058.6" y="382.3" class="st3" width="261" height="335"/>
			<rect x="1103.1" y="401.8" class="st4" width="174" height="94"/>
			<rect x="1117.1" y="409.8" class="st5" width="24" height="66"/>
			<rect x="1153.1" y="409.8" class="st5" width="76" height="66"/>
			<rect x="1239.1" y="409.8" class="st5" width="23" height="66"/>
			<rect x="1117.1" y="485.8" class="st5" width="145" height="3"/>
			<rect x="1164.1" y="478.8" class="st5" width="54" height="1"/>
			<rect x="1103.1" y="509.8" class="st4" width="177" height="89"/>
			<rect x="1150.1" y="520.8" class="st5" width="81" height="10"/>
			<rect x="1132.1" y="536.8" class="st5" width="114" height="6"/>
			<rect x="1123.1" y="549.8" class="st5" width="137" height="19"/>
			<rect x="1164.1" y="573.8" class="st5" width="54" height="8"/>
			<rect x="1120.1" y="589.8" class="st5" width="147" height="3"/>
			<rect x="1103.1" y="611.8" class="st4" width="177" height="89"/>
			<rect x="1150.1" y="627.8" class="st5" width="81" height="5"/>
			<rect x="1139.1" y="635.8" class="st5" width="101" height="6"/>
			<rect x="1178.1" y="644.8" class="st5" width="27" height="26"/>
			<rect x="1164.1" y="675.8" class="st5" width="54" height="8"/>
			<rect x="1120.1" y="691.8" class="st5" width="147" height="3"/>
		</g>
		
			<image style="display:none;overflow:visible;opacity:0.75;enable-background:new    ;" width="164" height="151" xlink:href="890B15A2A2B10AF0.png"  transform="matrix(1 0 0 1 216.6219 378.2721)">
		</image>
		
			<image style="display:none;overflow:visible;opacity:0.75;enable-background:new    ;" width="164" height="143" xlink:href="890B15A2A2B10AF3.png"  transform="matrix(1 0 0 1 216.6219 310.2721)">
		</image>
		<g id="_x3C_mugGroup_x3E_">
			<path class="st6" d="M183.2,405l1-6.3c0,0,8,62,78,61.1c68-0.9,79-64.7,79-64.7v6.3l0,0c0,39.2-35.4,71-79,71h-4.1
				C216.7,472.4,183.2,442.2,183.2,405z"/>
			<path class="st7" d="M183.2,392.2v-69.1c0,0,9,67,79,66c68-1,79-67,79-67v66c0,43.6-35.4,79-79,79h-4
				C216.8,467.1,183.2,433.6,183.2,392.2z"/>
			<path class="st7" d="M150.2,392.1v-47.3c0-5.4,4.4-9.7,9.7-9.7h24.3v18.5l-16,0.5v29h16v19l-25-1
				C154.2,401.1,150.2,397.1,150.2,392.1z"/>
			<ellipse class="st8" cx="262.2" cy="322.6" rx="79" ry="68.5"/>
			<ellipse class="st9" cx="262.2" cy="319.6" rx="59" ry="49.5"/>
			<ellipse class="st10" cx="260.2" cy="316.1" rx="54" ry="46"/>
		</g>
		<path class="st6" d="M952.2,847.3h-454c-0.7,0-1.4-0.1-2.1-0.4c-11-4.8-24.5-16.5-26-29.9l-0.5-8.9l14.5,12.6
			c4.5,2.8,6.5,3.9,10.1,3.9h462.6c6.6,0,12.7-4,15.9-10.4l6.8-12.8l-0.5,9.6C979.1,825.2,970.1,848.8,952.2,847.3z"/>
		<path class="st11" d="M963.9,530.8H484c-7.8,0-14.2-6.1-14.5-13.8L457,248.6c-0.4-9.5,6.9-17.5,16.4-18c0.2,0,0.5,0,0.7,0
			l499.1,1.1c12.9-0.1,23.4,5.9,22.7,18.8l-14.8,264C980.5,523.6,973,530.8,963.9,530.8z"/>
		<path class="st12" d="M954.9,522.8H493.8c-9.4,0-17.1-7.3-17.5-16.7L464,261.6c-0.4-9.4,6.8-17.3,16.2-17.8c0.3,0,0.6,0,0.8,0
			l489.3,0.9c9.4,0,17,7.7,16.9,17.1c0,0.3,0,0.5,0,0.8l-12.1,241C974.5,514.3,965.7,522.8,954.9,522.8z"/>
		<circle class="st5" cx="721.1" cy="265.8" r="6"/>
		<rect x="577.1" y="530.8" class="st13" width="295" height="9"/>
		<rect x="577.1" y="522.8" class="st12" width="295" height="16.5"/>
		<path class="st14" d="M495.8,530.8h459.5c13.7,0,24.8,11.1,24.8,24.8v254c0,15-12.2,27.2-27.2,27.2l0,0H497.3
			c-15.6,0-28.2-12.6-28.2-28.2V557.5C469.1,542.7,481.1,530.8,495.8,530.8L495.8,530.8z"/>
		<path class="st15" d="M952.6,836.3h-460c-11.5-3-21.5-10.9-23-20l-0.5-5.9l14.5,8.3c4.5,1.8,6.5,2.6,10.2,2.6h463.5
			c6.6,0,12.8-2.6,15.9-6.9l6.8-9.1l-0.5,7C979.6,821.7,970.6,837.3,952.6,836.3z"/>
		<path class="st16" d="M987.1,272.8c1-11,1-26.7-13-27c-53-1-194-2-251-1s-187.2-2.5-242-1c-15.2,0.4-17,13-17,28l-7-13.5
			c0-11.9,9.6-21.5,21.5-21.5h491.7c12.1,0.1,21.9,9.9,21.8,22L987.1,272.8z"/>
		<path class="st17" d="M662.8,708.3h125.7c3.7,0,6.7,3,6.7,6.7v76.7c0,3.7-3,6.7-6.7,6.7H662.8c-3.7,0-6.7-3-6.7-6.7v-76.7
			C656.1,711.3,659.1,708.3,662.8,708.3z"/>
		<path class="st3" d="M665.1,711.3h123c3.6,0,6.5,2.9,6.5,6.5v74c0,3.6-2.9,6.5-6.5,6.5h-123c-3.6,0-6.5-2.9-6.5-6.5v-74
			C658.6,714.2,661.5,711.3,665.1,711.3z"/>
		<path class="st18" d="M687.6,817.8h76.3c1.8,0,3.2,1.4,3.2,3.2v0.8l0,0h-83l0,0v-0.5C684.1,819.3,685.7,817.8,687.6,817.8
			L687.6,817.8z"/>
		<path class="st12" d="M511.2,560.8H550c1.7,0,3.1,1.4,3.1,3.1v8.8c0,1.7-1.4,3.1-3.1,3.1h-38.8c-1.7,0-3.1-1.4-3.1-3.1v-8.8
			C508.1,562.2,509.5,560.8,511.2,560.8z"/>
		<path class="st12" d="M567.9,560.3h38.4c1.8,0,3.3,1.5,3.3,3.3v8.4c0,1.8-1.5,3.3-3.3,3.3h-38.4c-1.8,0-3.3-1.5-3.3-3.3v-8.4
			C564.6,561.7,566.1,560.3,567.9,560.3z"/>
		<path class="st12" d="M623.9,561.3h38.4c1.8,0,3.3,1.5,3.3,3.3v8.4c0,1.8-1.5,3.3-3.3,3.3h-38.4c-1.8,0-3.3-1.5-3.3-3.3v-8.4
			C620.6,562.7,622.1,561.3,623.9,561.3z"/>
		<path class="st12" d="M679.9,561.3h38.4c1.8,0,3.3,1.5,3.3,3.3v8.4c0,1.8-1.5,3.3-3.3,3.3h-38.4c-1.8,0-3.3-1.5-3.3-3.3v-8.4
			C676.6,562.7,678.1,561.3,679.9,561.3z"/>
		<path class="st12" d="M734.9,561.3h38.4c1.8,0,3.3,1.5,3.3,3.3v8.4c0,1.8-1.5,3.3-3.3,3.3h-38.4c-1.8,0-3.3-1.5-3.3-3.3v-8.4
			C731.6,562.7,733.1,561.3,734.9,561.3z"/>
		<path class="st12" d="M790.9,561.3h38.4c1.8,0,3.3,1.5,3.3,3.3v8.4c0,1.8-1.5,3.3-3.3,3.3h-38.4c-1.8,0-3.3-1.5-3.3-3.3v-8.4
			C787.6,562.7,789.1,561.3,790.9,561.3z"/>
		<path class="st12" d="M846.9,561.3h38.4c1.8,0,3.3,1.5,3.3,3.3v8.4c0,1.8-1.5,3.3-3.3,3.3h-38.4c-1.8,0-3.3-1.5-3.3-3.3v-8.4
			C843.6,562.7,845.1,561.3,846.9,561.3z"/>
		<path class="st12" d="M902.9,561.3h38.4c1.8,0,3.3,1.5,3.3,3.3v8.4c0,1.8-1.5,3.3-3.3,3.3h-38.4c-1.8,0-3.3-1.5-3.3-3.3v-8.4
			C899.6,562.7,901.1,561.3,902.9,561.3z"/>
		<path class="st12" d="M513.6,587.3h54.1c2.7,0,5,2.2,5,5v17.1c0,2.7-2.2,5-5,5h-54.1c-2.7,0-5-2.2-5-5v-17.1
			C508.6,589.5,510.8,587.3,513.6,587.3z"/>
		<path class="st12" d="M514.1,624.3h68c3,0,5.5,2.5,5.5,5.5v16c0,3-2.5,5.5-5.5,5.5h-68c-3,0-5.5-2.5-5.5-5.5v-16
			C508.6,626.7,511.1,624.3,514.1,624.3z"/>
		<path class="st12" d="M512.2,663.3h25.9c2,0,3.6,1.6,3.6,3.6v19.9c0,2-1.6,3.6-3.6,3.6h-25.9c-2,0-3.6-1.6-3.6-3.6v-19.9
			C508.6,664.9,510.2,663.3,512.2,663.3z"/>
		<path class="st12" d="M559.8,663.3h58.7c2.8,0,5.2,2.3,5.2,5.2v16.7c0,2.8-2.3,5.1-5.2,5.1h-58.7c-2.8,0-5.1-2.3-5.1-5.1v-16.7
			C554.6,665.6,556.9,663.3,559.8,663.3z"/>
		<path class="st12" d="M644.9,663.3h161.4c4.6,0,8.3,3.7,8.3,8.3V682c0,4.6-3.7,8.3-8.3,8.3H644.9c-4.6,0-8.3-3.7-8.3-8.3v-10.4
			C636.6,667,640.3,663.3,644.9,663.3z"/>
		<path class="st12" d="M591.1,587.3h25c1.9,0,3.5,1.6,3.5,3.5v20c0,1.9-1.6,3.5-3.5,3.5h-25c-1.9,0-3.5-1.6-3.5-3.5v-20
			C587.6,588.8,589.2,587.3,591.1,587.3z"/>
		<path class="st12" d="M634.1,587.3h25c1.9,0,3.5,1.6,3.5,3.5v20c0,1.9-1.6,3.5-3.5,3.5h-25c-1.9,0-3.5-1.6-3.5-3.5v-20
			C630.6,588.8,632.2,587.3,634.1,587.3z"/>
		<path class="st12" d="M676.1,588.3h25c1.9,0,3.5,1.6,3.5,3.5v20c0,1.9-1.6,3.5-3.5,3.5h-25c-1.9,0-3.5-1.6-3.5-3.5v-20
			C672.6,589.8,674.2,588.3,676.1,588.3z"/>
		<path class="st12" d="M719.1,587.3h25c1.9,0,3.5,1.6,3.5,3.5v20c0,1.9-1.6,3.5-3.5,3.5h-25c-1.9,0-3.5-1.6-3.5-3.5v-20
			C715.6,588.8,717.2,587.3,719.1,587.3z"/>
		<path class="st12" d="M761.1,587.3h25c1.9,0,3.5,1.6,3.5,3.5v20c0,1.9-1.6,3.5-3.5,3.5h-25c-1.9,0-3.5-1.6-3.5-3.5v-20
			C757.6,588.8,759.2,587.3,761.1,587.3z"/>
		<path class="st12" d="M803.1,587.3h25c1.9,0,3.5,1.6,3.5,3.5v20c0,1.9-1.6,3.5-3.5,3.5h-25c-1.9,0-3.5-1.6-3.5-3.5v-20
			C799.6,588.8,801.2,587.3,803.1,587.3z"/>
		<path class="st12" d="M689.1,624.3h25c1.9,0,3.5,1.6,3.5,3.5v20c0,1.9-1.6,3.5-3.5,3.5h-25c-1.9,0-3.5-1.6-3.5-3.5v-20
			C685.6,625.8,687.2,624.3,689.1,624.3z"/>
		<path class="st12" d="M731.1,624.3h25c1.9,0,3.5,1.6,3.5,3.5v20c0,1.9-1.6,3.5-3.5,3.5h-25c-1.9,0-3.5-1.6-3.5-3.5v-20
			C727.6,625.8,729.2,624.3,731.1,624.3z"/>
		<path class="st12" d="M772.1,624.3h25c1.9,0,3.5,1.6,3.5,3.5v20c0,1.9-1.6,3.5-3.5,3.5h-25c-1.9,0-3.5-1.6-3.5-3.5v-20
			C768.6,625.8,770.2,624.3,772.1,624.3z"/>
		<path class="st12" d="M814.1,624.3h25c1.9,0,3.5,1.6,3.5,3.5v20c0,1.9-1.6,3.5-3.5,3.5h-25c-1.9,0-3.5-1.6-3.5-3.5v-20
			C810.6,625.8,812.2,624.3,814.1,624.3z"/>
		<path class="st12" d="M862.4,624.3h75.4c3.2,0,5.8,2.6,5.8,5.8v15.4c0,3.2-2.6,5.8-5.8,5.8h-75.4c-3.2,0-5.8-2.6-5.8-5.8v-15.4
			C856.6,626.9,859.2,624.3,862.4,624.3z"/>
		<path class="st12" d="M854.7,587.3h82.9c3.3,0,6,2.7,6,6v14.9c0,3.3-2.7,6-6,6h-82.9c-3.3,0-6-2.7-6-6v-14.9
			C848.6,590,851.3,587.3,854.7,587.3z"/>
		<path class="st12" d="M645.1,624.3h25c1.9,0,3.5,1.6,3.5,3.5v20c0,1.9-1.6,3.5-3.5,3.5h-25c-1.9,0-3.5-1.6-3.5-3.5v-20
			C641.6,625.8,643.2,624.3,645.1,624.3z"/>
		<path class="st12" d="M602.1,624.3h25c1.9,0,3.5,1.6,3.5,3.5v20c0,1.9-1.6,3.5-3.5,3.5h-25c-1.9,0-3.5-1.6-3.5-3.5v-20
			C598.6,625.8,600.2,624.3,602.1,624.3z"/>
		<polygon class="st5" points="932.1,485.8 520.1,485.8 505.1,286.8 946.1,286.8 		"/>
		<g id="pencils">
			<path class="st2" d="M391.3,755.9h-20l0.5-205v-0.6c0-4.3,3.5-7.8,7.8-7.9c0,0,0,0,0,0h2.9c4.6,0,8.3,3.7,8.3,8.3v0.2
				L391.3,755.9z"/>
			<path class="st19" d="M390.8,754.5h-20l0.5-205v-0.7c0-4.3,3.5-7.8,7.8-7.8c0,0,0,0,0,0h2.9c4.6,0,8.3,3.7,8.3,8.3v0.2
				L390.8,754.5z"/>
			<path class="st2" d="M382.1,774.8l9.2-19h-20l9.2,19c0.2,0.4,0.7,0.6,1.2,0.4C381.9,775.2,382.1,775,382.1,774.8z"/>
			<path class="st20" d="M381.6,774.3l9.2-19.8h-20l9.2,19.8c0.2,0.4,0.7,0.6,1.2,0.4C381.3,774.7,381.5,774.5,381.6,774.3z"/>
			<path class="st21" d="M390.3,549.3v0.2h-19v-0.7c0-4.3,3.5-7.8,7.8-7.8c0,0,0,0,0,0h2.9C386.6,541,390.3,544.8,390.3,549.3z"/>
			<path class="st2" d="M302.4,752.6h-20l0.5-205V547c0-4.3,3.5-7.8,7.8-7.9c0,0,0,0,0,0h2.9c4.6,0,8.3,3.7,8.3,8.3v0.2L302.4,752.6
				z"/>
			<path class="st22" d="M301.8,750.5h-20l0.5-205v-0.7c0-4.3,3.5-7.8,7.8-7.8c0,0,0,0,0,0h2.9c4.6,0,8.3,3.7,8.3,8.3v0.2
				L301.8,750.5z"/>
			<path class="st2" d="M293.2,770.5l9.2-17.9h-20l9.2,17.9c0.2,0.4,0.7,0.6,1.2,0.4C293,770.9,293.1,770.7,293.2,770.5z"/>
			<path class="st20" d="M292.6,770.3l9.2-19.8h-20l9.2,19.8c0.2,0.4,0.7,0.6,1.2,0.4C292.3,770.7,292.5,770.5,292.6,770.3z"/>
			<path class="st23" d="M301.3,545.3v0.2h-19v-0.7c0-4.3,3.5-7.8,7.8-7.8c0,0,0,0,0,0h2.9C297.6,537,301.3,540.8,301.3,545.3z"/>
			<path class="st2" d="M252.5,760.9h-20l0.5-205v-0.7c0-4.3,3.5-7.8,7.8-7.8c0,0,0,0,0,0h2.9c4.6,0,8.3,3.7,8.3,8.3v0.2
				L252.5,760.9z"/>
			<path class="st24" d="M251.8,758.5h-20l0.5-205v-0.7c0-4.3,3.5-7.8,7.8-7.8c0,0,0,0,0,0h2.9c4.6,0,8.3,3.7,8.3,8.3v0.2
				L251.8,758.5z"/>
			<path class="st2" d="M243.3,778.9l9.2-17.9h-20l9.2,17.9c0.2,0.4,0.7,0.6,1.2,0.4C243.1,779.2,243.2,779,243.3,778.9z"/>
			<path class="st20" d="M242.6,778.3l9.2-19.8h-20l9.2,19.8c0.2,0.4,0.7,0.6,1.2,0.4C242.3,778.7,242.5,778.5,242.6,778.3z"/>
			<path class="st25" d="M251.3,553.3v0.2h-19v-0.7c0-4.3,3.5-7.8,7.8-7.8c0,0,0,0,0,0h2.9C247.6,545,251.3,548.8,251.3,553.3z"/>
			<path class="st2" d="M204.6,738.7h-20l0.5-205V533c0-4.3,3.5-7.8,7.8-7.9c0,0,0,0,0,0h2.9c4.6,0,8.3,3.7,8.3,8.3v0.2L204.6,738.7
				z"/>
			<path class="st26" d="M203.8,735.5h-20l0.5-205v-0.7c0-4.3,3.5-7.8,7.8-7.8c0,0,0,0,0,0h2.9c4.6,0,8.3,3.7,8.3,8.3v0.2
				L203.8,735.5z"/>
			<path class="st2" d="M195.4,755.5l9.2-16.8h-20l9.2,16.8c0.2,0.4,0.7,0.5,1.2,0.4C195.2,755.8,195.3,755.7,195.4,755.5z"/>
			<path class="st20" d="M194.6,755.3l9.2-19.8h-20l9.2,19.8c0.2,0.4,0.7,0.6,1.2,0.4C194.3,755.7,194.5,755.5,194.6,755.3z"/>
			<path class="st27" d="M203.3,530.3v0.2h-19v-0.7c0-4.3,3.5-7.8,7.8-7.8c0,0,0,0,0,0h2.9C199.6,522,203.3,525.8,203.3,530.3z"/>
			<path class="st2" d="M350.5,727.6h-20l0.5-205v-0.7c0-4.3,3.5-7.8,7.8-7.8c0,0,0,0,0,0h2.9c4.6,0,8.3,3.7,8.3,8.3v0.2
				L350.5,727.6z"/>
			<path class="st2" d="M341.3,745.7l9.2-18.1h-20l9.2,18.1c0.2,0.4,0.7,0.6,1.2,0.4C341.1,746,341.2,745.9,341.3,745.7z"/>
			<path class="st20" d="M340.6,745.3l9.2-19.8h-20l9.2,19.8c0.2,0.4,0.7,0.6,1.2,0.4C340.3,745.7,340.5,745.5,340.6,745.3z"/>
			<path class="st28" d="M349.8,725.6h-20l0.5-205v-0.7c0-4.3,3.5-7.8,7.8-7.9c0,0,0,0,0,0h2.9c4.6,0,8.3,3.7,8.3,8.3v0.2
				L349.8,725.6z"/>
			<path class="st29" d="M349.3,520.3v0.2h-19v-0.7c0-4.3,3.5-7.8,7.8-7.8c0,0,0,0,0,0h2.9C345.6,512,349.3,515.8,349.3,520.3z"/>
			<g>
				<polygon class="st20" points="374.4,748.7 370.8,754.5 378.1,754.5 				"/>
				<polygon class="st20" points="380.8,748.7 377.1,754.5 384.4,754.5 				"/>
				<polygon class="st20" points="387.1,748.7 383.4,754.5 390.8,754.5 				"/>
				<polygon class="st20" points="285.4,744.7 281.8,750.5 289.1,750.5 				"/>
				<polygon class="st20" points="291.8,744.7 288.1,750.5 295.4,750.5 				"/>
				<polygon class="st20" points="298.1,744.7 294.4,750.5 301.8,750.5 				"/>
				<polygon class="st20" points="235.4,752.7 231.8,758.5 239.1,758.5 				"/>
				<polygon class="st20" points="241.8,752.7 238.1,758.5 245.4,758.5 				"/>
				<polygon class="st20" points="248.1,752.7 244.4,758.5 251.8,758.5 				"/>
				<polygon class="st20" points="187.4,729.7 183.8,735.5 191.1,735.5 				"/>
				<polygon class="st20" points="193.8,729.7 190.1,735.5 197.4,735.5 				"/>
				<polygon class="st20" points="200.1,729.7 196.4,735.5 203.8,735.5 				"/>
				<polygon class="st20" points="333.4,719.8 329.8,725.6 337.1,725.6 				"/>
				<polygon class="st20" points="339.8,719.8 336.1,725.6 343.4,725.6 				"/>
				<polygon class="st20" points="346.1,719.8 342.4,725.6 349.8,725.6 				"/>
			</g>
			<g id="pencil_lead">
				<path class="st27" d="M198,748l-0.2,0.3l-3.3,7c-0.1,0.2-0.2,0.3-0.4,0.4c-0.4,0.2-1,0-1.2-0.4l-3.3-7l-0.2-0.5
					c1.2-0.5,3-1.1,4.7-0.9C195.7,747.2,197.2,747.7,198,748z"/>
				<path class="st27" d="M198,748.1l-0.2,0.3l-8.2,0l-0.2-0.5c1.1-0.5,3-1.1,4.6-0.9C195.7,747.2,197.2,747.7,198,748.1z"/>
			</g>
			<g id="pencil_lead_00000088129558032601771450000000835689898344322213_">
				<path class="st25" d="M246.1,771.1l-0.2,0.3l-3.3,7c-0.1,0.2-0.2,0.3-0.4,0.4c-0.4,0.2-1,0-1.2-0.4l-3.3-7l-0.2-0.5
					c1.2-0.5,3-1.1,4.7-0.9C243.7,770.2,245.2,770.7,246.1,771.1z"/>
				<path class="st25" d="M246,771.1l-0.2,0.3l-8.2,0l-0.2-0.5c1.1-0.5,3-1.1,4.6-0.9C243.7,770.3,245.2,770.8,246,771.1z"/>
			</g>
			<g id="pencil_lead_00000142142045325034525170000004303547867783489707_">
				<path class="st23" d="M296.1,763.2l-0.2,0.3l-3.3,7c-0.1,0.2-0.2,0.3-0.4,0.4c-0.4,0.2-1,0-1.2-0.4l-3.3-7l-0.2-0.5
					c1.2-0.5,3-1.1,4.7-0.9C293.7,762.3,295.2,762.9,296.1,763.2z"/>
				<path class="st23" d="M296,763.3l-0.2,0.3l-8.2,0l-0.2-0.5c1.1-0.5,3-1.1,4.6-0.9C293.7,762.4,295.2,762.9,296,763.3z"/>
			</g>
			<g id="pencil_lead_00000010281625650204750330000004623034695543263128_">
				<path class="st29" d="M344.1,738.3l-0.2,0.3l-3.3,7c-0.1,0.2-0.2,0.3-0.4,0.4c-0.4,0.2-1,0-1.2-0.4l-3.3-7l-0.2-0.5
					c1.2-0.5,3-1.1,4.7-0.9C341.7,737.4,343.2,737.9,344.1,738.3z"/>
				<path class="st29" d="M344,738.3l-0.2,0.3l-8.2,0l-0.2-0.5c1.1-0.5,3-1.1,4.6-0.9C341.7,737.5,343.2,738,344,738.3z"/>
			</g>
			<g id="pencil_lead_00000084506957162756398520000009185186820319962262_">
				<path class="st21" d="M385,767.3l-0.2,0.3l-3.3,7c-0.1,0.2-0.2,0.3-0.4,0.4c-0.4,0.2-1,0-1.2-0.4l-3.3-7l-0.2-0.5
					c1.2-0.5,3-1.1,4.7-0.9C382.7,766.4,384.2,766.9,385,767.3z"/>
				<path class="st21" d="M385,767.3l-0.2,0.3l-8.2,0l-0.2-0.5c1.1-0.5,3-1.1,4.6-0.9C382.7,766.5,384.2,767,385,767.3z"/>
			</g>
		</g>
		<path class="st12" d="M914.2,663.3h25.9c2,0,3.6,1.6,3.6,3.6v19.9c0,2-1.6,3.6-3.6,3.6h-25.9c-2,0-3.6-1.6-3.6-3.6v-19.9
			C910.6,664.9,912.2,663.3,914.2,663.3z"/>
		<path class="st12" d="M833.8,663.3h58.7c2.8,0,5.2,2.3,5.2,5.2v16.7c0,2.8-2.3,5.1-5.2,5.1h-58.7c-2.8,0-5.2-2.3-5.2-5.1v-16.7
			C828.6,665.6,830.9,663.3,833.8,663.3z"/>
	</g>
</g>
</svg>
